<svg xmlns="http://www.w3.org/2000/svg" viewBox="0 0 100 100" width="100" height="100">
  <defs>
    <linearGradient id="safariBg" x1="0%" y1="0%" x2="0%" y2="100%">
      <stop offset="0%" stopColor="#25b4ff" />
      <stop offset="100%" stopColor="#0064e6" />
    </linearGradient>
  </defs>
  <rect width="100" height="100" rx="22" fill="url(#safariBg)" />
  <circle cx="50" cy="50" r="38" fill="none" stroke="rgba(255,255,255,0.4)" stroke-width="2" />
  <circle cx="50" cy="50" r="36" fill="rgba(255,255,255,0.1)" />
  <g stroke="rgba(255,255,255,0.85)">
    <line x1="50" y1="16" x2="50" y2="22" stroke-width="2.5" transform="rotate(0 50 50)" />
    <line x1="50" y1="16" x2="50" y2="19" stroke-width="1.5" transform="rotate(30 50 50)" />
    <line x1="50" y1="16" x2="50" y2="19" stroke-width="1.5" transform="rotate(60 50 50)" />
    <line x1="50" y1="16" x2="50" y2="22" stroke-width="2.5" transform="rotate(90 50 50)" />
    <line x1="50" y1="16" x2="50" y2="19" stroke-width="1.5" transform="rotate(120 50 50)" />
    <line x1="50" y1="16" x2="50" y2="19" stroke-width="1.5" transform="rotate(150 50 50)" />
    <line x1="50" y1="16" x2="50" y2="22" stroke-width="2.5" transform="rotate(180 50 50)" />
    <line x1="50" y1="16" x2="50" y2="19" stroke-width="1.5" transform="rotate(210 50 50)" />
    <line x1="50" y1="16" x2="50" y2="19" stroke-width="1.5" transform="rotate(240 50 50)" />
    <line x1="50" y1="16" x2="50" y2="22" stroke-width="2.5" transform="rotate(270 50 50)" />
    <line x1="50" y1="16" x2="50" y2="19" stroke-width="1.5" transform="rotate(300 50 50)" />
    <line x1="50" y1="16" x2="50" y2="19" stroke-width="1.5" transform="rotate(330 50 50)" />
  </g>
  <polygon points="50,18 57,50 50,47" fill="#ff3b30" transform="rotate(45 50 50)" />
  <polygon points="50,18 43,50 50,47" fill="#e02020" transform="rotate(45 50 50)" />
  <polygon points="50,82 57,50 50,53" fill="#f5f5f7" transform="rotate(45 50 50)" />
  <polygon points="50,82 43,50 50,53" fill="#d2d2d7" transform="rotate(45 50 50)" />
  <circle cx="50" cy="50" r="4" fill="#ffffff" />
  <circle cx="50" cy="50" r="2" fill="#0064e6" />
</svg>
